<?xml version="1.0" encoding="UTF-8"?>
<svg id="_レイヤー_1" data-name="レイヤー 1" xmlns="http://www.w3.org/2000/svg" viewBox="0 0 949.65 995.47">
  <path d="M885.53,690.21l-160.95-172.27,126.13-92.2-213.41-1.22-50.98-54.57L949.65,0l-439.12,288.83-197.7-211.61C280.94,35.7,230.81,8.92,174.41,8.92,78.08,8.92,0,87,0,183.33,0,235.45,22.87,282.22,59.12,314.18l157.15,168.2-122.09,80.31,189.19-8.49,58.83,62.97L71.36,995.47l370.93-271.17,189.53,202.86c31.88,41.53,82.02,68.31,138.42,68.31,96.32,0,174.41-78.08,174.41-174.41,0-52.12-22.87-98.9-59.12-130.86ZM162.01,80.62c-23.53,4.77-44.47-.58-46.78-11.95s14.9-24.46,38.42-29.23c23.53-4.77,44.47.58,46.78,11.95s-14.9,24.46-38.42,29.23ZM200.64,868.75l257.32-357.27-257.32,15.09L718.17,183.05l-265.91,273.19,298.45,5.7L200.64,868.75Z"/>
</svg>